<svg width="915" height="800" viewBox="0 0 915 800" fill="none" xmlns="http://www.w3.org/2000/svg">
<path d="M457.355 789.652C457.355 789.652 77.3554 568.652 18.8553 332.652C-39.6448 96.6523 201.355 -133.848 457.355 122.152L456.855 122.305C712.855 -133.695 953.855 96.8047 895.355 332.805C836.855 568.805 456.855 789.805 456.855 789.805L457.355 789.652Z" stroke="#EC4174" stroke-width="20" stroke-linejoin="round"/>
<path d="M105.444 325.72C151.447 506.097 457.231 685.177 457.231 685.177L456.87 686.152C456.87 686.152 762.654 507.072 808.656 326.695C854.659 146.318 651.489 3.6028 456.87 224.642L457.231 223.667C262.612 2.62786 59.4413 145.343 105.444 325.72Z" stroke="#EC4174" stroke-width="10" stroke-linejoin="round"/>
<path d="M456.855 307.152V348.152M510.855 360.152H469.855M443.855 360.152H402.855M456.855 374.152V415.152M456.855 544.152V585.152M510.855 597.152H469.855M443.855 597.152H402.855M456.855 611.152V652.152M161.855 183.152V224.152M215.855 236.152H174.855M148.855 236.152H107.855M161.855 250.152V291.152M760.855 183.152V224.152M814.855 236.152H773.855M747.855 236.152H706.855M760.855 250.152V291.152M240.855 307.152V348.152M294.855 360.152H253.855M227.855 360.152H186.855M240.855 374.152V415.152M672.855 307.152V348.152M726.855 360.152H685.855M659.855 360.152H618.855M672.855 374.152V415.152M564.855 183.152V224.152M618.855 236.152H577.855M551.855 236.152H510.855M564.855 250.152V291.152M348.855 436.152V477.152M402.855 489.152H361.855M335.855 489.152H294.855M348.855 503.152V544.152M348.855 183.152V224.152M402.855 236.152H361.855M335.855 236.152H294.855M348.855 250.152V291.152M564.855 436.152V477.152M618.855 489.152H577.855M551.855 489.152H510.855M564.855 503.152V544.152" stroke="#EC4174" stroke-width="7"/>
</svg>
